# xmcd
#
# Track frame offsets:
#	150
#	13401
#	26964
#	40894
#	52488
#	66614
#	77199
#	91375
#	103596
#	116328
#	130624
#	144493
#	156843
#	170783
#	184047
#	196964
#	233266
#	264407
#	281272
#
# Disc length: 3946 seconds
#
# Revision: 1
# Processed by: cddbd v1.5.2PL0 Copyright (c) Steve Scherf et al.
# Submitted via: audiograbber 1.83.01
#
DISCID=110f6813
DTITLE=Various Artist - Blues from the heart cd1
DYEAR=2010
DGENRE=blues
TTITLE0=Muddy Waters - Mannish boy
TTITLE1=John Lee Hooker - One bourbon, one scotch, one beer
TTITLE2=Willie Dixon - Walkin' the blues
TTITLE3=Little Walter - My babe
TTITLE4=Howlin' Wolf - Smokestack lightnin'
TTITLE5=Sonny boy Williamson - Let your consience be your guide
TTITLE6=Little Milton - I'm gonna move to the outskirts soon
TTITLE7=Buddy Guy - Ten years ago
TTITLE8=Albert King - California Blues
TTITLE9=Willie Mabon - I don't know
TTITLE10=Muddy Waters - I'm ready
TTITLE11=Otis Spann - It must've been the devil
TTITLE12=Elmore James - Dust my broom
TTITLE13=Little Walter - Mean old world
TTITLE14=John Lee Hooker - Hobo blues
TTITLE15=Big Joe Turner - Roll me baby
TTITLE16=BB King - Outside help
TTITLE17=John Lee Hooker - Blues for sunrise
TTITLE18=Muddy Waters - Rock me
EXTD=
EXTT0=
EXTT1=
EXTT2=
EXTT3=
EXTT4=
EXTT5=
EXTT6=
EXTT7=
EXTT8=
EXTT9=
EXTT10=
EXTT11=
EXTT12=
EXTT13=
EXTT14=
EXTT15=
EXTT16=
EXTT17=
EXTT18=
PLAYORDER=
